<svg width="636" height="1048" viewBox="0 0 636 1048" fill="none" xmlns="http://www.w3.org/2000/svg">
  <rect width="636" height="1048" fill="#050810"/>
  <rect x="20" y="20" width="596" height="1008" rx="36" fill="url(#bg)"/>
  <circle cx="506" cy="150" r="150" fill="#22D3EE" fill-opacity="0.16"/>
  <circle cx="120" cy="872" r="180" fill="#A855F7" fill-opacity="0.14"/>

  <text x="52" y="96" fill="#F8FAFC" font-family="Noto Sans KR, sans-serif" font-size="36" font-weight="800">선택이 쌓이면 DNA가 됩니다</text>
  <text x="52" y="132" fill="#9FB0C6" font-family="Noto Sans KR, sans-serif" font-size="22" font-weight="500">나만의 Choice DNA와 지배적 성향을 확인하세요.</text>

  <rect x="52" y="192" width="532" height="308" rx="34" fill="#0B1220" fill-opacity="0.9"/>
  <rect x="52.75" y="192.75" width="530.5" height="306.5" rx="33.25" stroke="rgba(255,255,255,0.1)" stroke-width="1.5"/>
  <text x="86" y="252" fill="#8FEAFE" font-family="JetBrains Mono, monospace" font-size="18" font-weight="800">CHOICE DNA</text>
  <text x="86" y="332" fill="#F8FAFC" font-family="Noto Sans KR, sans-serif" font-size="58" font-weight="900" letter-spacing="-2">반골 탐험가</text>
  <text x="86" y="380" fill="#9FB0C6" font-family="Noto Sans KR, sans-serif" font-size="22" font-weight="500">자기 기준이 분명하고 소수 선택도 두려워하지 않아요.</text>

  <rect x="86" y="420" width="396" height="16" rx="8" fill="#152235"/>
  <rect x="86" y="420" width="317" height="16" rx="8" fill="url(#accuracy)"/>
  <text x="500" y="434" fill="#8FEAFE" font-family="JetBrains Mono, monospace" font-size="24" font-weight="800">80%</text>

  <rect x="52" y="538" width="258" height="170" rx="28" fill="#0B1220" fill-opacity="0.88"/>
  <rect x="52.75" y="538.75" width="256.5" height="168.5" rx="27.25" stroke="rgba(255,255,255,0.09)" stroke-width="1.5"/>
  <text x="86" y="590" fill="#93A3B8" font-family="Noto Sans KR, sans-serif" font-size="20" font-weight="600">총 선택</text>
  <text x="86" y="660" fill="#F8FAFC" font-family="JetBrains Mono, monospace" font-size="52" font-weight="800">12회</text>

  <rect x="326" y="538" width="258" height="170" rx="28" fill="#0B1220" fill-opacity="0.88"/>
  <rect x="326.75" y="538.75" width="256.5" height="168.5" rx="27.25" stroke="rgba(255,255,255,0.09)" stroke-width="1.5"/>
  <text x="360" y="590" fill="#93A3B8" font-family="Noto Sans KR, sans-serif" font-size="20" font-weight="600">소수파 비율</text>
  <text x="360" y="660" fill="#F8FAFC" font-family="JetBrains Mono, monospace" font-size="52" font-weight="800">68%</text>

  <rect x="52" y="748" width="532" height="188" rx="30" fill="#0B1220" fill-opacity="0.88"/>
  <rect x="52.75" y="748.75" width="530.5" height="186.5" rx="29.25" stroke="rgba(255,255,255,0.09)" stroke-width="1.5"/>
  <text x="86" y="804" fill="#F8FAFC" font-family="Noto Sans KR, sans-serif" font-size="28" font-weight="800">지배적 성향</text>
  <text x="86" y="854" fill="#C8D3E3" font-family="Noto Sans KR, sans-serif" font-size="22" font-weight="600">⚡ 행동파   🧭 자기주도형   🔥 소수파 기질</text>

  <defs>
    <linearGradient id="bg" x1="60" y1="28" x2="578" y2="1008" gradientUnits="userSpaceOnUse">
      <stop stop-color="#0C1424"/>
      <stop offset="1" stop-color="#08111A"/>
    </linearGradient>
    <linearGradient id="accuracy" x1="86" y1="420" x2="403" y2="436" gradientUnits="userSpaceOnUse">
      <stop stop-color="#22D3EE"/>
      <stop offset="1" stop-color="#A855F7"/>
    </linearGradient>
  </defs>
</svg>
