<svg width="1932" height="828" viewBox="0 0 1932 828" fill="none" xmlns="http://www.w3.org/2000/svg">
  <rect width="1932" height="828" fill="#070B14"/>
  <rect x="24" y="24" width="1884" height="780" rx="36" fill="url(#bgGlow)" fill-opacity="0.92"/>
  <circle cx="1680" cy="140" r="220" fill="#22D3EE" fill-opacity="0.18"/>
  <circle cx="1460" cy="700" r="260" fill="#2563EB" fill-opacity="0.16"/>
  <circle cx="220" cy="120" r="180" fill="#0EA5E9" fill-opacity="0.12"/>

  <rect x="112" y="104" width="104" height="104" rx="28" fill="#0B1220"/>
  <rect x="112" y="104" width="104" height="104" rx="28" stroke="rgba(255,255,255,0.12)"/>
  <text x="164" y="172" text-anchor="middle" fill="#F8FAFC" font-family="Noto Sans KR, Apple SD Gothic Neo, sans-serif" font-size="58" font-weight="800">R</text>

  <text x="112" y="298" fill="#F8FAFC" font-family="Noto Sans KR, Apple SD Gothic Neo, sans-serif" font-size="118" font-weight="900" letter-spacing="-4">Round</text>
  <text x="112" y="376" fill="#8FEAFE" font-family="Noto Sans KR, Apple SD Gothic Neo, sans-serif" font-size="42" font-weight="700">고르기로 발견하는 나의 Choice DNA</text>

  <g opacity="0.98">
    <rect x="112" y="438" width="888" height="224" rx="32" fill="#0B1220" fill-opacity="0.88"/>
    <rect x="112.75" y="438.75" width="886.5" height="222.5" rx="31.25" stroke="rgba(255,255,255,0.11)" stroke-width="1.5"/>
    <rect x="152" y="474" width="110" height="42" rx="21" fill="#22D3EE" fill-opacity="0.18"/>
    <text x="207" y="503" text-anchor="middle" fill="#8FEAFE" font-family="Noto Sans KR, Apple SD Gothic Neo, sans-serif" font-size="25" font-weight="700">질문 카드</text>
    <text x="152" y="565" fill="#F8FAFC" font-family="Noto Sans KR, Apple SD Gothic Neo, sans-serif" font-size="56" font-weight="800" letter-spacing="-2">야식은?</text>
    <rect x="152" y="595" width="332" height="44" rx="22" fill="#111C2E"/>
    <rect x="500" y="595" width="332" height="44" rx="22" fill="#111C2E"/>
    <text x="318" y="625" text-anchor="middle" fill="#F8FAFC" font-family="Noto Sans KR, Apple SD Gothic Neo, sans-serif" font-size="28" font-weight="700">떡볶이</text>
    <text x="666" y="625" text-anchor="middle" fill="#F8FAFC" font-family="Noto Sans KR, Apple SD Gothic Neo, sans-serif" font-size="28" font-weight="700">치킨</text>
  </g>

  <g opacity="0.98">
    <rect x="1068" y="126" width="744" height="560" rx="36" fill="#08111E" fill-opacity="0.9"/>
    <rect x="1068.75" y="126.75" width="742.5" height="558.5" rx="35.25" stroke="rgba(255,255,255,0.12)" stroke-width="1.5"/>
    <text x="1124" y="204" fill="#F8FAFC" font-family="Noto Sans KR, Apple SD Gothic Neo, sans-serif" font-size="34" font-weight="700">고르고 바로 결과를 확인하세요</text>

    <rect x="1124" y="252" width="632" height="76" rx="24" fill="#101A2A"/>
    <rect x="1124" y="252" width="442" height="76" rx="24" fill="url(#barA)"/>
    <text x="1160" y="301" fill="#F8FAFC" font-family="JetBrains Mono, monospace" font-size="36" font-weight="700">A 58%</text>
    <text x="1716" y="301" text-anchor="end" fill="#B6C2D4" font-family="JetBrains Mono, monospace" font-size="28" font-weight="600">MY</text>

    <rect x="1124" y="350" width="632" height="76" rx="24" fill="#101A2A"/>
    <rect x="1124" y="350" width="190" height="76" rx="24" fill="#1E293B"/>
    <text x="1160" y="399" fill="#F8FAFC" font-family="JetBrains Mono, monospace" font-size="36" font-weight="700">B 42%</text>

    <rect x="1124" y="462" width="280" height="42" rx="21" fill="#2563EB" fill-opacity="0.18"/>
    <text x="1264" y="491" text-anchor="middle" fill="#93C5FD" font-family="Noto Sans KR, Apple SD Gothic Neo, sans-serif" font-size="24" font-weight="700">Choice DNA 진행 중</text>

    <text x="1124" y="566" fill="#F8FAFC" font-family="Noto Sans KR, Apple SD Gothic Neo, sans-serif" font-size="58" font-weight="900" letter-spacing="-2">선택이 쌓이면</text>
    <text x="1124" y="636" fill="#8FEAFE" font-family="Noto Sans KR, Apple SD Gothic Neo, sans-serif" font-size="58" font-weight="900" letter-spacing="-2">당신의 성향이 보입니다</text>
  </g>

  <defs>
    <linearGradient id="bgGlow" x1="96" y1="80" x2="1836" y2="772" gradientUnits="userSpaceOnUse">
      <stop stop-color="#0C1424"/>
      <stop offset="0.5" stop-color="#0A1120"/>
      <stop offset="1" stop-color="#091019"/>
    </linearGradient>
    <linearGradient id="barA" x1="1124" y1="252" x2="1566" y2="328" gradientUnits="userSpaceOnUse">
      <stop stop-color="#22D3EE"/>
      <stop offset="1" stop-color="#2563EB"/>
    </linearGradient>
  </defs>
</svg>
