<svg width="1000" height="1000" viewBox="0 0 1000 1000" fill="none" xmlns="http://www.w3.org/2000/svg">
  <rect width="1000" height="1000" fill="#070B14"/>
  <rect x="36" y="36" width="928" height="928" rx="56" fill="url(#bg)"/>
  <circle cx="838" cy="166" r="128" fill="#22D3EE" fill-opacity="0.18"/>
  <circle cx="812" cy="874" r="180" fill="#2563EB" fill-opacity="0.18"/>
  <circle cx="168" cy="158" r="112" fill="#0EA5E9" fill-opacity="0.12"/>

  <rect x="88" y="88" width="116" height="116" rx="30" fill="#0B1220"/>
  <text x="146" y="164" text-anchor="middle" fill="#F8FAFC" font-family="Noto Sans KR, Apple SD Gothic Neo, sans-serif" font-size="66" font-weight="900">라</text>

  <text x="88" y="312" fill="#F8FAFC" font-family="Noto Sans KR, Apple SD Gothic Neo, sans-serif" font-size="116" font-weight="900" letter-spacing="-4">라운드</text>
  <text x="88" y="388" fill="#99ECFF" font-family="Noto Sans KR, Apple SD Gothic Neo, sans-serif" font-size="38" font-weight="700">고르고 바로 보는 내 성향</text>

  <rect x="88" y="462" width="824" height="268" rx="34" fill="#0B1220" fill-opacity="0.9"/>
  <rect x="88.75" y="462.75" width="822.5" height="266.5" rx="33.25" stroke="rgba(255,255,255,0.11)" stroke-width="1.5"/>
  <rect x="126" y="502" width="130" height="44" rx="22" fill="#22D3EE" fill-opacity="0.18"/>
  <text x="191" y="532" text-anchor="middle" fill="#8FEAFE" font-family="Noto Sans KR, Apple SD Gothic Neo, sans-serif" font-size="25" font-weight="700">질문 카드</text>
  <text x="126" y="602" fill="#F8FAFC" font-family="Noto Sans KR, Apple SD Gothic Neo, sans-serif" font-size="58" font-weight="900" letter-spacing="-2">오늘 더 끌리는 건?</text>
  <rect x="126" y="642" width="302" height="48" rx="24" fill="#111C2E"/>
  <rect x="444" y="642" width="302" height="48" rx="24" fill="#111C2E"/>
  <text x="277" y="674" text-anchor="middle" fill="#F8FAFC" font-family="Noto Sans KR, Apple SD Gothic Neo, sans-serif" font-size="28" font-weight="700">가볍게 놀기</text>
  <text x="595" y="674" text-anchor="middle" fill="#F8FAFC" font-family="Noto Sans KR, Apple SD Gothic Neo, sans-serif" font-size="28" font-weight="700">푹 쉬기</text>

  <rect x="88" y="770" width="412" height="118" rx="28" fill="rgba(255,255,255,0.06)"/>
  <text x="126" y="822" fill="#D6F8FF" font-family="Noto Sans KR, Apple SD Gothic Neo, sans-serif" font-size="28" font-weight="700">선택 → 결과 → 이유 → DNA</text>
  <text x="126" y="860" fill="#B9C5D8" font-family="Noto Sans KR, Apple SD Gothic Neo, sans-serif" font-size="22" font-weight="500">고를수록 나의 패턴이 보입니다</text>

  <defs>
    <linearGradient id="bg" x1="72" y1="70" x2="928" y2="944" gradientUnits="userSpaceOnUse">
      <stop stop-color="#0C1424"/>
      <stop offset="0.5" stop-color="#0A1120"/>
      <stop offset="1" stop-color="#091019"/>
    </linearGradient>
  </defs>
</svg>
