<svg width="1932" height="828" viewBox="0 0 1932 828" fill="none" xmlns="http://www.w3.org/2000/svg">
  <rect width="1932" height="828" fill="#070B14"/>
  <rect x="24" y="24" width="1884" height="780" rx="40" fill="url(#bg)"/>
  <circle cx="1710" cy="128" r="196" fill="#22D3EE" fill-opacity="0.16"/>
  <circle cx="1492" cy="716" r="240" fill="#2563EB" fill-opacity="0.18"/>
  <circle cx="210" cy="112" r="164" fill="#0EA5E9" fill-opacity="0.12"/>

  <rect x="110" y="100" width="112" height="112" rx="28" fill="#0B1220"/>
  <text x="166" y="173" text-anchor="middle" fill="#F8FAFC" font-family="Noto Sans KR, Apple SD Gothic Neo, sans-serif" font-size="62" font-weight="900">라</text>

  <text x="110" y="300" fill="#F8FAFC" font-family="Noto Sans KR, Apple SD Gothic Neo, sans-serif" font-size="122" font-weight="900" letter-spacing="-4">라운드</text>
  <text x="110" y="378" fill="#8FEAFE" font-family="Noto Sans KR, Apple SD Gothic Neo, sans-serif" font-size="42" font-weight="700">고르며 발견하는 나의 Choice DNA</text>

  <rect x="110" y="444" width="860" height="222" rx="34" fill="#0B1220" fill-opacity="0.9"/>
  <rect x="110.75" y="444.75" width="858.5" height="220.5" rx="33.25" stroke="rgba(255,255,255,0.11)" stroke-width="1.5"/>
  <rect x="150" y="480" width="118" height="42" rx="21" fill="#22D3EE" fill-opacity="0.18"/>
  <text x="209" y="509" text-anchor="middle" fill="#8FEAFE" font-family="Noto Sans KR, Apple SD Gothic Neo, sans-serif" font-size="24" font-weight="700">질문 카드</text>
  <text x="150" y="570" fill="#F8FAFC" font-family="Noto Sans KR, Apple SD Gothic Neo, sans-serif" font-size="54" font-weight="900" letter-spacing="-2">주말 아침엔?</text>
  <rect x="150" y="606" width="302" height="46" rx="23" fill="#111C2E"/>
  <rect x="468" y="606" width="302" height="46" rx="23" fill="#111C2E"/>
  <text x="301" y="637" text-anchor="middle" fill="#F8FAFC" font-family="Noto Sans KR, Apple SD Gothic Neo, sans-serif" font-size="27" font-weight="700">늦잠 자기</text>
  <text x="619" y="637" text-anchor="middle" fill="#F8FAFC" font-family="Noto Sans KR, Apple SD Gothic Neo, sans-serif" font-size="27" font-weight="700">일찍 시작</text>

  <rect x="1048" y="124" width="744" height="560" rx="36" fill="#08111E" fill-opacity="0.9"/>
  <rect x="1048.75" y="124.75" width="742.5" height="558.5" rx="35.25" stroke="rgba(255,255,255,0.12)" stroke-width="1.5"/>
  <text x="1108" y="204" fill="#F8FAFC" font-family="Noto Sans KR, Apple SD Gothic Neo, sans-serif" font-size="34" font-weight="700">질문을 고르고 바로 결과를 확인하세요</text>

  <rect x="1108" y="254" width="620" height="76" rx="24" fill="#101A2A"/>
  <rect x="1108" y="254" width="428" height="76" rx="24" fill="url(#barA)"/>
  <text x="1144" y="303" fill="#F8FAFC" font-family="JetBrains Mono, monospace" font-size="36" font-weight="700">A 58%</text>
  <text x="1688" y="303" text-anchor="end" fill="#B6C2D4" font-family="JetBrains Mono, monospace" font-size="28" font-weight="600">MY</text>

  <rect x="1108" y="352" width="620" height="76" rx="24" fill="#101A2A"/>
  <rect x="1108" y="352" width="192" height="76" rx="24" fill="#1E293B"/>
  <text x="1144" y="401" fill="#F8FAFC" font-family="JetBrains Mono, monospace" font-size="36" font-weight="700">B 42%</text>

  <rect x="1108" y="468" width="286" height="42" rx="21" fill="#2563EB" fill-opacity="0.18"/>
  <text x="1251" y="497" text-anchor="middle" fill="#93C5FD" font-family="Noto Sans KR, Apple SD Gothic Neo, sans-serif" font-size="24" font-weight="700">Choice DNA 진행 중</text>

  <text x="1108" y="574" fill="#F8FAFC" font-family="Noto Sans KR, Apple SD Gothic Neo, sans-serif" font-size="58" font-weight="900" letter-spacing="-2">선택이 쌓이면</text>
  <text x="1108" y="644" fill="#8FEAFE" font-family="Noto Sans KR, Apple SD Gothic Neo, sans-serif" font-size="58" font-weight="900" letter-spacing="-2">당신의 성향이 보입니다</text>

  <defs>
    <linearGradient id="bg" x1="96" y1="80" x2="1836" y2="772" gradientUnits="userSpaceOnUse">
      <stop stop-color="#0C1424"/>
      <stop offset="0.5" stop-color="#0A1120"/>
      <stop offset="1" stop-color="#091019"/>
    </linearGradient>
    <linearGradient id="barA" x1="1108" y1="254" x2="1536" y2="330" gradientUnits="userSpaceOnUse">
      <stop stop-color="#22D3EE"/>
      <stop offset="1" stop-color="#2563EB"/>
    </linearGradient>
  </defs>
</svg>
