<svg width="800" height="1000" viewBox="0 0 800 1000" fill="none" xmlns="http://www.w3.org/2000/svg">
  <rect width="800" height="1000" rx="48" fill="#E9E7F0"/>
  <rect x="32" y="32" width="736" height="936" rx="36" fill="url(#bg)"/>
  <circle cx="627" cy="190" r="170" fill="#D7D8FF" fill-opacity="0.6"/>
  <circle cx="171" cy="831" r="186" fill="#F2E7FF" fill-opacity="0.7"/>
  <rect x="212" y="246" width="376" height="522" rx="160" fill="#131826"/>
  <ellipse cx="400" cy="227" rx="118" ry="126" fill="#F2C8A4"/>
  <path d="M280 214C280 147 333 98 400 98C467 98 520 147 520 214V286H280V214Z" fill="#1B1B24"/>
  <path d="M286 352C286 330 304 312 326 312H474C496 312 514 330 514 352V646H286V352Z" fill="#1C2335"/>
  <path d="M334 312H466L440 442H360L334 312Z" fill="#FFFFFF"/>
  <rect x="381" y="312" width="38" height="156" rx="18" fill="#0F172A"/>
  <rect x="256" y="344" width="68" height="243" rx="34" fill="#242C40"/>
  <rect x="476" y="344" width="68" height="243" rx="34" fill="#242C40"/>
  <rect x="328" y="646" width="144" height="150" rx="30" fill="#1E293B"/>
  <rect x="276" y="796" width="84" height="112" rx="24" fill="#0F172A"/>
  <rect x="440" y="796" width="84" height="112" rx="24" fill="#0F172A"/>
  <text x="400" y="904" text-anchor="middle" fill="#0F172A" font-family="Noto Sans KR, sans-serif" font-size="44" font-weight="800">포멀</text>
  <defs>
    <linearGradient id="bg" x1="78" y1="74" x2="716" y2="924" gradientUnits="userSpaceOnUse">
      <stop stop-color="#F7F5FB"/>
      <stop offset="1" stop-color="#E2DEEF"/>
    </linearGradient>
  </defs>
</svg>
